<svg xmlns="http://www.w3.org/2000/svg" viewBox="0 0 6912.2 984.0" width="304" height="43" role="img" aria-label="FreedomFromSNS"><g fill="#7a2e2e"><path transform="translate(60.0,924.0) scale(1.3200,-1.3200)" d="M41 700H332V600H151V405H293V305H151V0H41Z"/><path transform="translate(574.1,924.0) scale(1.0000,-1.0000)" d="M41 700H204Q289 700 328.0 660.5Q367 621 367 539V496Q367 387 295 358V356Q335 344 351.5 307.0Q368 270 368 208V85Q368 55 370.0 36.5Q372 18 380 0H268Q262 17 260.0 32.0Q258 47 258 86V214Q258 262 242.5 281.0Q227 300 189 300H151V0H41ZM191 400Q224 400 240.5 417.0Q257 434 257 474V528Q257 566 243.5 583.0Q230 600 201 600H151V400Z"/><path transform="translate(1037.1,924.0) scale(1.0000,-1.0000)" d="M41 700H341V600H151V415H302V315H151V100H341V0H41Z"/><path transform="translate(1460.1,924.0) scale(1.0000,-1.0000)" d="M41 700H341V600H151V415H302V315H151V100H341V0H41Z"/><path transform="translate(1883.1,924.0) scale(1.0000,-1.0000)" d="M41 700H209Q291 700 332.0 656.0Q373 612 373 527V173Q373 88 332.0 44.0Q291 0 209 0H41ZM207 100Q234 100 248.5 116.0Q263 132 263 168V532Q263 568 248.5 584.0Q234 600 207 600H151V100Z"/><path transform="translate(2349.1,924.0) scale(1.0000,-1.0000)" d="M33 166V534Q33 618 76.0 664.0Q119 710 200 710Q281 710 324.0 664.0Q367 618 367 534V166Q367 82 324.0 36.0Q281 -10 200 -10Q119 -10 76.0 36.0Q33 82 33 166ZM257 159V541Q257 610 200 610Q143 610 143 541V159Q143 90 200 90Q257 90 257 159Z"/><path transform="translate(2809.1,924.0) scale(1.0000,-1.0000)" d="M41 700H198L268 199H270L340 700H497V0H393V530H391L311 0H219L139 530H137V0H41Z"/><path transform="translate(3407.1,924.0) scale(1.3200,-1.3200)" d="M41 700H332V600H151V405H293V305H151V0H41Z"/><path transform="translate(3921.2,924.0) scale(1.0000,-1.0000)" d="M41 700H204Q289 700 328.0 660.5Q367 621 367 539V496Q367 387 295 358V356Q335 344 351.5 307.0Q368 270 368 208V85Q368 55 370.0 36.5Q372 18 380 0H268Q262 17 260.0 32.0Q258 47 258 86V214Q258 262 242.5 281.0Q227 300 189 300H151V0H41ZM191 400Q224 400 240.5 417.0Q257 434 257 474V528Q257 566 243.5 583.0Q230 600 201 600H151V400Z"/><path transform="translate(4384.2,924.0) scale(1.0000,-1.0000)" d="M33 166V534Q33 618 76.0 664.0Q119 710 200 710Q281 710 324.0 664.0Q367 618 367 534V166Q367 82 324.0 36.0Q281 -10 200 -10Q119 -10 76.0 36.0Q33 82 33 166ZM257 159V541Q257 610 200 610Q143 610 143 541V159Q143 90 200 90Q257 90 257 159Z"/><path transform="translate(4844.2,924.0) scale(1.0000,-1.0000)" d="M41 700H198L268 199H270L340 700H497V0H393V530H391L311 0H219L139 530H137V0H41Z"/><path transform="translate(5442.2,924.0) scale(1.3200,-1.3200)" d="M22 166V206H126V158Q126 90 183 90Q211 90 225.5 106.5Q240 123 240 160Q240 204 220.0 237.5Q200 271 146 318Q78 378 51.0 426.5Q24 475 24 536Q24 619 66.0 664.5Q108 710 188 710Q267 710 307.5 664.5Q348 619 348 534V505H244V541Q244 577 230.0 593.5Q216 610 189 610Q134 610 134 543Q134 505 154.5 472.0Q175 439 229 392Q298 332 324.0 283.0Q350 234 350 168Q350 82 307.5 36.0Q265 -10 184 -10Q104 -10 63.0 35.5Q22 81 22 166Z"/><path transform="translate(5993.2,924.0) scale(1.0000,-1.0000)" d="M41 700H179L286 281H288V700H386V0H273L141 511H139V0H41Z"/><path transform="translate(6480.2,924.0) scale(1.0000,-1.0000)" d="M22 166V206H126V158Q126 90 183 90Q211 90 225.5 106.5Q240 123 240 160Q240 204 220.0 237.5Q200 271 146 318Q78 378 51.0 426.5Q24 475 24 536Q24 619 66.0 664.5Q108 710 188 710Q267 710 307.5 664.5Q348 619 348 534V505H244V541Q244 577 230.0 593.5Q216 610 189 610Q134 610 134 543Q134 505 154.5 472.0Q175 439 229 392Q298 332 324.0 283.0Q350 234 350 168Q350 82 307.5 36.0Q265 -10 184 -10Q104 -10 63.0 35.5Q22 81 22 166Z"/></g></svg>
